<?xml version="1.0" encoding="utf-8"?>
<!-- Generator: Adobe Illustrator 21.0.0, SVG Export Plug-In . SVG Version: 6.00 Build 0)  -->
<svg version="1.1" id="Layer_1" xmlns="http://www.w3.org/2000/svg" xmlns:xlink="http://www.w3.org/1999/xlink" x="0px" y="0px"
	 viewBox="0 0 256 256" style="enable-background:new 0 0 256 256;" xml:space="preserve">
<style type="text/css">
	.st0{fill:#999999;}
	.st1{fill:#B7EDDE;}
	.st2{fill:#346E5D;}
	.st3{fill:#5CB89C;}
	.st4{fill:#FFFFFF;}
</style>
<g>
	<g>
		
			<ellipse transform="matrix(0.9686 -0.2486 0.2486 0.9686 -27.8025 35.8394)" class="st0" cx="128" cy="128" rx="59.3" ry="127.1"/>
		
			<ellipse transform="matrix(0.9686 -0.2486 0.2486 0.9686 -27.8025 35.8394)" class="st1" cx="128" cy="128" rx="59.3" ry="127.1"/>
		
			<ellipse transform="matrix(0.7144 -0.6997 0.6997 0.7144 -53.005 126.1205)" class="st2" cx="128" cy="128" rx="59.3" ry="127.1"/>
		
			<ellipse transform="matrix(0.2689 -0.9632 0.9632 0.2689 -29.6829 216.8872)" class="st3" cx="128" cy="128" rx="59.3" ry="127.1"/>
		
			<ellipse transform="matrix(0.9686 -0.2486 0.2486 0.9686 -27.8025 35.8394)" class="st2" cx="128" cy="128" rx="127.1" ry="59.3"/>
		
			<ellipse transform="matrix(0.7144 -0.6997 0.6997 0.7144 -53.005 126.1205)" class="st1" cx="128" cy="128" rx="127.1" ry="59.3"/>
		
			<ellipse transform="matrix(0.2689 -0.9632 0.9632 0.2689 -29.6829 216.8872)" class="st3" cx="128" cy="128" rx="127.1" ry="59.3"/>
		<path class="st4" d="M140,119.2l-14.4,38.3c-0.7,1.8-1.5,3.6-2.2,5.5c-0.7,1.8-1,3.3-1,4.5c0,2.2,0.7,3.8,2.2,4.9
			c1.4,1.1,3.1,1.6,5,1.6c2.5,0,4.7-0.4,6.4-1.2s3.1-1.8,4.3-2.8s2.1-2,2.8-2.8s1.4-1.2,1.9-1.2c0.7,0,1,0.4,1,1.3
			c0,0.3-0.8,1.4-2.5,3.2s-3.8,3.8-6.5,5.8s-5.6,3.9-9,5.6c-3.3,1.7-6.6,2.5-9.8,2.5c-1.8,0-3.6-0.2-5.5-0.7c-1.9-0.4-3.6-1.1-5.2-2
			s-2.9-2.1-3.9-3.6s-1.5-3.4-1.5-5.5c0-1,0.2-2.2,0.5-3.5c0.3-1.2,0.6-2.4,1-3.6c0.6-2.1,1.3-4.1,2-6.2c0.4-1.1,0.8-2.2,1.2-3.3
			l13.1-36.6L140,119.2L140,119.2z M130.9,85.7c0-1.7,0.3-3.3,1-5s1.6-3.1,2.7-4.3c1.2-1.2,2.5-2.2,4.1-3s3.4-1.2,5.4-1.2
			c3,0,5.3,0.8,7,2.5s2.6,3.9,2.6,6.8c0,1.8-0.3,3.5-1,5.1s-1.6,3-2.7,4.3c-1.2,1.3-2.5,2.3-4.1,3.1c-1.6,0.8-3.4,1.2-5.4,1.2
			c-3,0-5.3-0.8-7-2.5S130.9,88.7,130.9,85.7z"/>
	</g>
</g>
</svg>
