<svg id="Layer_1" data-name="Layer 1" xmlns="http://www.w3.org/2000/svg" viewBox="0 0 256 256"><defs><style>.cls-1{fill:#999;}.cls-2{fill:#b7edde;}.cls-3{fill:#346e5d;}.cls-4{fill:#5cb89c;}.cls-5{fill:#fff;}</style></defs><title>iizii-logo_</title><ellipse class="cls-1" cx="128" cy="128" rx="59.3" ry="127.1" transform="translate(-27.8 35.84) rotate(-14.39)"/><ellipse class="cls-2" cx="128" cy="128" rx="59.3" ry="127.1" transform="translate(-27.8 35.84) rotate(-14.39)"/><ellipse class="cls-3" cx="128" cy="128" rx="59.3" ry="127.1" transform="translate(-53.01 126.12) rotate(-44.4)"/><ellipse class="cls-4" cx="128.03" cy="128.02" rx="59.3" ry="127.1" transform="translate(-29.7 216.9) rotate(-74.4)"/><ellipse class="cls-3" cx="128" cy="128" rx="127.1" ry="59.3" transform="translate(-27.8 35.84) rotate(-14.39)"/><ellipse class="cls-2" cx="128" cy="128" rx="127.1" ry="59.3" transform="translate(-53.01 126.12) rotate(-44.4)"/><ellipse class="cls-4" cx="128.03" cy="128.02" rx="127.1" ry="59.3" transform="translate(-29.7 216.9) rotate(-74.4)"/><path class="cls-5" d="M140,119.2l-14.4,38.3c-.7,1.8-1.5,3.6-2.2,5.5a12.73,12.73,0,0,0-1,4.5,5.61,5.61,0,0,0,2.2,4.9,7.88,7.88,0,0,0,5,1.6,15.23,15.23,0,0,0,6.4-1.2,20,20,0,0,0,4.3-2.8,24.46,24.46,0,0,0,2.8-2.8A3,3,0,0,1,145,166c.7,0,1,.4,1,1.3,0,.3-.8,1.4-2.5,3.2a48.79,48.79,0,0,1-6.5,5.8,60,60,0,0,1-9,5.6,21,21,0,0,1-15.3,1.8,18.12,18.12,0,0,1-5.2-2,11.23,11.23,0,0,1-3.9-3.6,9.84,9.84,0,0,1-1.5-5.5,16.33,16.33,0,0,1,.5-3.5c.3-1.2.6-2.4,1-3.6.6-2.1,1.3-4.1,2-6.2l1.2-3.3,13.1-36.6,20.1-.2Zm-9.1-33.5a12.75,12.75,0,0,1,1-5,14.31,14.31,0,0,1,2.7-4.3,15.49,15.49,0,0,1,4.1-3,11.91,11.91,0,0,1,5.4-1.2,9.38,9.38,0,0,1,7,2.5,9.12,9.12,0,0,1,2.6,6.8,12.55,12.55,0,0,1-1,5.1,17.34,17.34,0,0,1-2.7,4.3,13.88,13.88,0,0,1-4.1,3.1,11.91,11.91,0,0,1-5.4,1.2,8.82,8.82,0,0,1-9.6-9.5Z"/></svg>